<?xml version="1.0" encoding="UTF-8" standalone="no"?>
<!DOCTYPE svg PUBLIC "-//W3C//DTD SVG 1.1//EN" "http://www.w3.org/Graphics/SVG/1.1/DTD/svg11.dtd">
<svg width="100%" height="100%" viewBox="0 0 1848 1692" version="1.1" xmlns="http://www.w3.org/2000/svg" xmlns:xlink="http://www.w3.org/1999/xlink" xml:space="preserve" xmlns:serif="http://www.serif.com/" style="fill-rule:evenodd;clip-rule:evenodd;stroke-linecap:round;stroke-linejoin:round;stroke-miterlimit:1.5;">
    <g transform="matrix(1,0,0,1,-800.417,-286.917)">
        <g id="A-Cells" serif:id="A Cells" transform="matrix(1,0,0,1,406,-241)">
            <g id="Cell" transform="matrix(0.513756,0,0,0.513756,548.484,605.775)">
                <g transform="matrix(1,0,0,1,-182,150)">
                    <path d="M850,536C932.042,530.361 986.935,583.665 999,639.5C1001.74,652.16 1000.46,672.461 993.882,683.939C985.929,697.818 970.685,702.493 951.408,713.139C925.615,727.383 890.809,737.995 850,743C768.376,753.011 704.489,696.517 701,639.5C697.551,583.135 730.34,544.225 850,536Z" style="fill:rgb(255,190,190);stroke:black;stroke-width:2.43px;"/>
                </g>
                <g transform="matrix(1.54569,0,0,1.40416,-385.902,-324.289)">
                    <ellipse cx="681" cy="792" rx="61" ry="49" style="fill:rgb(162,78,78);"/>
                </g>
            </g>
            <g id="Cell1" serif:id="Cell" transform="matrix(0.558103,0,0,0.558103,708.479,502.371)">
                <g transform="matrix(1,0,0,1,-182,150)">
                    <path d="M850,536C932.042,530.361 986.935,583.665 999,639.5C1001.74,652.16 1000.46,672.461 993.882,683.939C985.929,697.818 970.685,702.493 951.408,713.139C925.615,727.383 890.809,737.995 850,743C768.376,753.011 704.489,696.517 701,639.5C697.551,583.135 730.34,544.225 850,536Z" style="fill:rgb(255,190,190);stroke:black;stroke-width:2.24px;"/>
                </g>
                <g transform="matrix(1.55522,0,0,1.64019,-392.971,-499.661)">
                    <ellipse cx="681" cy="792" rx="61" ry="49" style="fill:rgb(162,78,78);"/>
                </g>
            </g>
            <g id="Cell2" serif:id="Cell" transform="matrix(0.558103,0,0,0.558103,458.479,725.371)">
                <g transform="matrix(1,0,0,1,-182,150)">
                    <path d="M850,536C932.042,530.361 986.935,583.665 999,639.5C1001.74,652.16 1000.46,672.461 993.882,683.939C985.929,697.818 970.685,702.493 951.408,713.139C925.615,727.383 890.809,737.995 850,743C768.376,753.011 704.489,696.517 701,639.5C697.551,583.135 730.34,544.225 850,536Z" style="fill:rgb(255,190,190);stroke:black;stroke-width:2.24px;"/>
                </g>
                <g transform="matrix(1.55522,0,0,1.64019,-392.971,-499.661)">
                    <ellipse cx="681" cy="792" rx="61" ry="49" style="fill:rgb(162,78,78);"/>
                </g>
            </g>
            <g id="Cell3" serif:id="Cell" transform="matrix(0.558103,0,0,0.558103,869.479,561.371)">
                <g transform="matrix(1,0,0,1,-182,150)">
                    <path d="M850,536C932.042,530.361 986.935,583.665 999,639.5C1001.74,652.16 1000.46,672.461 993.882,683.939C985.929,697.818 970.685,702.493 951.408,713.139C925.615,727.383 890.809,737.995 850,743C768.376,753.011 704.489,696.517 701,639.5C697.551,583.135 730.34,544.225 850,536Z" style="fill:rgb(255,190,190);stroke:black;stroke-width:2.24px;"/>
                </g>
                <g transform="matrix(1.55522,0,0,1.64019,-392.971,-499.661)">
                    <ellipse cx="681" cy="792" rx="61" ry="49" style="fill:rgb(162,78,78);"/>
                </g>
            </g>
            <g id="Cell4" serif:id="Cell" transform="matrix(0.705649,0,0,0.705649,581.938,529.215)">
                <g transform="matrix(1,0,0,1,-182,150)">
                    <path d="M850,536C932.042,530.361 986.935,583.665 999,639.5C1001.74,652.16 1000.46,672.461 993.882,683.939C985.929,697.818 970.685,702.493 951.408,713.139C925.615,727.383 890.809,737.995 850,743C768.376,753.011 704.489,696.517 701,639.5C697.551,583.135 730.34,544.225 850,536Z" style="fill:rgb(255,190,190);stroke:black;stroke-width:1.77px;"/>
                </g>
                <g transform="matrix(1.66249,0,0,1.53647,-472.565,-422.6)">
                    <ellipse cx="681" cy="792" rx="61" ry="49" style="fill:rgb(162,78,78);"/>
                </g>
            </g>
            <g transform="matrix(1,0,0,1,50,320)">
                <g transform="matrix(0.648352,0,0,0.64433,263.593,210.366)">
                    <rect x="451" y="479" width="273" height="194" style="fill:white;stroke:black;stroke-width:6.45px;"/>
                </g>
                <g transform="matrix(1.15278,0,0,1.15278,39.079,85.8056)">
                    <g transform="matrix(83.3333,0,0,83.3333,554.181,453.652)">
                    </g>
                    <text x="494px" y="453.652px" style="font-family:'Arial-BoldMT', 'Arial', sans-serif;font-weight:700;font-size:83.333px;">A</text>
                </g>
            </g>
        </g>
        <g id="B-Cells" serif:id="B Cells" transform="matrix(1,0,0,1,592,-157)">
            <g id="Cell5" serif:id="Cell" transform="matrix(0.535171,0,0,0.519467,1287.42,615.349)">
                <g transform="matrix(1,0,0,1,-182,150)">
                    <path d="M850,536C932.042,530.361 986.935,583.665 999,639.5C1001.74,652.16 1000.46,672.461 993.882,683.939C985.929,697.818 970.685,702.493 951.408,713.139C925.615,727.383 890.809,737.995 850,743C768.376,753.011 704.489,696.517 701,639.5C697.551,583.135 730.34,544.225 850,536Z" style="fill:rgb(185,219,255);stroke:black;stroke-width:2.37px;"/>
                </g>
                <g transform="matrix(1,0,0,1,19,-24)">
                    <ellipse cx="681" cy="792" rx="61" ry="49" style="fill:rgb(81,116,153);"/>
                </g>
            </g>
            <g id="Cell6" serif:id="Cell" transform="matrix(0.535171,0,0,0.519467,1150.74,679.514)">
                <g transform="matrix(1,0,0,1,-182,150)">
                    <path d="M850,536C932.042,530.361 986.935,583.665 999,639.5C1001.74,652.16 1000.46,672.461 993.882,683.939C985.929,697.818 970.685,702.493 951.408,713.139C925.615,727.383 890.809,737.995 850,743C768.376,753.011 704.489,696.517 701,639.5C697.551,583.135 730.34,544.225 850,536Z" style="fill:rgb(185,219,255);stroke:black;stroke-width:2.37px;"/>
                </g>
                <g transform="matrix(1,0,0,1,19,-24)">
                    <ellipse cx="681" cy="792" rx="61" ry="49" style="fill:rgb(81,116,153);"/>
                </g>
            </g>
            <g id="Cell7" serif:id="Cell" transform="matrix(0.535171,0,0,0.519467,1436.04,541.453)">
                <g transform="matrix(1,0,0,1,-182,150)">
                    <path d="M850,536C932.042,530.361 986.935,583.665 999,639.5C1001.74,652.16 1000.46,672.461 993.882,683.939C985.929,697.818 970.685,702.493 951.408,713.139C925.615,727.383 890.809,737.995 850,743C768.376,753.011 704.489,696.517 701,639.5C697.551,583.135 730.34,544.225 850,536Z" style="fill:rgb(185,219,255);stroke:black;stroke-width:2.37px;"/>
                </g>
                <g transform="matrix(1,0,0,1,19,-24)">
                    <ellipse cx="681" cy="792" rx="61" ry="49" style="fill:rgb(81,116,153);"/>
                </g>
            </g>
            <g id="Cell8" serif:id="Cell" transform="matrix(0.535171,0,0,0.519467,1295.48,474.859)">
                <g transform="matrix(1,0,0,1,-182,150)">
                    <path d="M850,536C932.042,530.361 986.935,583.665 999,639.5C1001.74,652.16 1000.46,672.461 993.882,683.939C985.929,697.818 970.685,702.493 951.408,713.139C925.615,727.383 890.809,737.995 850,743C768.376,753.011 704.489,696.517 701,639.5C697.551,583.135 730.34,544.225 850,536Z" style="fill:rgb(185,219,255);stroke:black;stroke-width:2.37px;"/>
                </g>
                <g transform="matrix(1,0,0,1,19,-24)">
                    <ellipse cx="681" cy="792" rx="61" ry="49" style="fill:rgb(81,116,153);"/>
                </g>
            </g>
            <g id="Cell9" serif:id="Cell" transform="matrix(0.535171,0,0,0.519467,1116.38,561.176)">
                <g transform="matrix(1,0,0,1,-182,150)">
                    <path d="M850,536C932.042,530.361 986.935,583.665 999,639.5C1001.74,652.16 1000.46,672.461 993.882,683.939C985.929,697.818 970.685,702.493 951.408,713.139C925.615,727.383 890.809,737.995 850,743C768.376,753.011 704.489,696.517 701,639.5C697.551,583.135 730.34,544.225 850,536Z" style="fill:rgb(185,219,255);stroke:black;stroke-width:2.37px;"/>
                </g>
                <g transform="matrix(1,0,0,1,19,-24)">
                    <ellipse cx="681" cy="792" rx="61" ry="49" style="fill:rgb(81,116,153);"/>
                </g>
            </g>
            <g transform="matrix(1,0,0,1,822,185)">
                <g transform="matrix(0.648352,0,0,0.64433,263.593,210.366)">
                    <rect x="451" y="479" width="273" height="194" style="fill:white;stroke:black;stroke-width:6.45px;"/>
                </g>
                <g transform="matrix(1.15278,0,0,1.15278,39.079,85.8056)">
                    <g transform="matrix(83.3333,0,0,83.3333,554.181,453.652)">
                    </g>
                    <text x="494px" y="453.652px" style="font-family:'Arial-BoldMT', 'Arial', sans-serif;font-weight:700;font-size:83.333px;">B</text>
                </g>
            </g>
        </g>
        <g id="D-cells" serif:id="D cells" transform="matrix(1,0,0,1,559,28)">
            <g id="Cell10" serif:id="Cell" transform="matrix(0.474441,0,0,0.474441,1132.55,1039.72)">
                <g transform="matrix(1,0,0,1,-182,150)">
                    <path d="M850,536C932.042,530.361 986.935,583.665 999,639.5C1001.74,652.16 1000.46,672.461 993.882,683.939C985.929,697.818 970.685,702.493 951.408,713.139C925.615,727.383 890.809,737.995 850,743C768.376,753.011 704.489,696.517 701,639.5C697.551,583.135 730.34,544.225 850,536Z" style="fill:rgb(242,239,239);stroke:black;stroke-width:2.63px;"/>
                </g>
                <g transform="matrix(1,0,0,1,19,-24)">
                    <ellipse cx="681" cy="792" rx="61" ry="49" style="fill:rgb(162,162,162);"/>
                </g>
            </g>
            <g id="Cell11" serif:id="Cell" transform="matrix(0.474441,0,0,0.474441,1405.35,844.729)">
                <g transform="matrix(1,0,0,1,-182,150)">
                    <path d="M850,536C932.042,530.361 986.935,583.665 999,639.5C1001.74,652.16 1000.46,672.461 993.882,683.939C985.929,697.818 970.685,702.493 951.408,713.139C925.615,727.383 890.809,737.995 850,743C768.376,753.011 704.489,696.517 701,639.5C697.551,583.135 730.34,544.225 850,536Z" style="fill:rgb(242,239,239);stroke:black;stroke-width:2.63px;"/>
                </g>
                <g transform="matrix(1,0,0,1,19,-24)">
                    <ellipse cx="681" cy="792" rx="61" ry="49" style="fill:rgb(162,162,162);"/>
                </g>
            </g>
            <g id="Cell12" serif:id="Cell" transform="matrix(0.474441,0,0,0.474441,1416.74,955.273)">
                <g transform="matrix(1,0,0,1,-182,150)">
                    <path d="M850,536C932.042,530.361 986.935,583.665 999,639.5C1001.74,652.16 1000.46,672.461 993.882,683.939C985.929,697.818 970.685,702.493 951.408,713.139C925.615,727.383 890.809,737.995 850,743C768.376,753.011 704.489,696.517 701,639.5C697.551,583.135 730.34,544.225 850,536Z" style="fill:rgb(242,239,239);stroke:black;stroke-width:2.63px;"/>
                </g>
                <g transform="matrix(1,0,0,1,19,-24)">
                    <ellipse cx="681" cy="792" rx="61" ry="49" style="fill:rgb(162,162,162);"/>
                </g>
            </g>
            <g id="Cell13" serif:id="Cell" transform="matrix(0.474441,0,0,0.474441,1279.63,1018.37)">
                <g transform="matrix(1,0,0,1,-182,150)">
                    <path d="M850,536C932.042,530.361 986.935,583.665 999,639.5C1001.74,652.16 1000.46,672.461 993.882,683.939C985.929,697.818 970.685,702.493 951.408,713.139C925.615,727.383 890.809,737.995 850,743C768.376,753.011 704.489,696.517 701,639.5C697.551,583.135 730.34,544.225 850,536Z" style="fill:rgb(242,239,239);stroke:black;stroke-width:2.63px;"/>
                </g>
                <g transform="matrix(1,0,0,1,19,-24)">
                    <ellipse cx="681" cy="792" rx="61" ry="49" style="fill:rgb(162,162,162);"/>
                </g>
            </g>
            <g id="Cell14" serif:id="Cell" transform="matrix(0.474441,0,0,0.474441,1107.88,932.5)">
                <g transform="matrix(1,0,0,1,-182,150)">
                    <path d="M850,536C932.042,530.361 986.935,583.665 999,639.5C1001.74,652.16 1000.46,672.461 993.882,683.939C985.929,697.818 970.685,702.493 951.408,713.139C925.615,727.383 890.809,737.995 850,743C768.376,753.011 704.489,696.517 701,639.5C697.551,583.135 730.34,544.225 850,536Z" style="fill:rgb(242,239,239);stroke:black;stroke-width:2.63px;"/>
                </g>
                <g transform="matrix(1,0,0,1,19,-24)">
                    <ellipse cx="681" cy="792" rx="61" ry="49" style="fill:rgb(162,162,162);"/>
                </g>
            </g>
            <g id="Cell15" serif:id="Cell" transform="matrix(0.474441,0,0,0.474441,1262.07,897.392)">
                <g transform="matrix(1,0,0,1,-182,150)">
                    <path d="M850,536C932.042,530.361 986.935,583.665 999,639.5C1001.74,652.16 1000.46,672.461 993.882,683.939C985.929,697.818 970.685,702.493 951.408,713.139C925.615,727.383 890.809,737.995 850,743C768.376,753.011 704.489,696.517 701,639.5C697.551,583.135 730.34,544.225 850,536Z" style="fill:rgb(242,239,239);stroke:black;stroke-width:2.63px;"/>
                </g>
                <g transform="matrix(1,0,0,1,19,-24)">
                    <ellipse cx="681" cy="792" rx="61" ry="49" style="fill:rgb(162,162,162);"/>
                </g>
            </g>
            <g transform="matrix(1,0,0,1,1084,932)">
                <g transform="matrix(0.648352,0,0,0.64433,263.593,210.366)">
                    <rect x="451" y="479" width="273" height="194" style="fill:white;stroke:black;stroke-width:6.45px;"/>
                </g>
                <g transform="matrix(1.15278,0,0,1.15278,39.079,85.8056)">
                    <g transform="matrix(83.3333,0,0,83.3333,554.181,453.652)">
                    </g>
                    <text x="494px" y="453.652px" style="font-family:'Arial-BoldMT', 'Arial', sans-serif;font-weight:700;font-size:83.333px;">D</text>
                </g>
            </g>
        </g>
        <g id="C-Cells" serif:id="C Cells" transform="matrix(1,0,0,1,417,-161.409)">
            <g id="Cell16" serif:id="Cell" transform="matrix(0.586704,0,0,0.586704,480.225,1145.54)">
                <g transform="matrix(1,0,0,1,-182,150)">
                    <path d="M850,536C932.042,530.361 986.935,583.665 999,639.5C1001.74,652.16 1000.46,672.461 993.882,683.939C985.929,697.818 970.685,702.493 951.408,713.139C925.615,727.383 890.809,737.995 850,743C768.376,753.011 704.489,696.517 701,639.5C697.551,583.135 730.34,544.225 850,536Z" style="fill:rgb(133,153,251);stroke:black;stroke-width:2.13px;"/>
                </g>
                <g transform="matrix(1,0,0,1,19,-24)">
                    <ellipse cx="681" cy="792" rx="61" ry="49" style="fill:rgb(76,93,178);"/>
                </g>
            </g>
            <g id="Cell17" serif:id="Cell" transform="matrix(0.586704,0,0,0.586704,692.026,1129.11)">
                <g transform="matrix(1,0,0,1,-182,150)">
                    <path d="M850,536C932.042,530.361 986.935,583.665 999,639.5C1001.74,652.16 1000.46,672.461 993.882,683.939C985.929,697.818 970.685,702.493 951.408,713.139C925.615,727.383 890.809,737.995 850,743C768.376,753.011 704.489,696.517 701,639.5C697.551,583.135 730.34,544.225 850,536Z" style="fill:rgb(133,153,251);stroke:black;stroke-width:2.13px;"/>
                </g>
                <g transform="matrix(1,0,0,1,19,-24)">
                    <ellipse cx="681" cy="792" rx="61" ry="49" style="fill:rgb(76,93,178);"/>
                </g>
            </g>
            <g id="Cell18" serif:id="Cell" transform="matrix(0.586704,0,0,0.586704,751.87,1007.66)">
                <g transform="matrix(1,0,0,1,-182,150)">
                    <path d="M850,536C932.042,530.361 986.935,583.665 999,639.5C1001.74,652.16 1000.46,672.461 993.882,683.939C985.929,697.818 970.685,702.493 951.408,713.139C925.615,727.383 890.809,737.995 850,743C768.376,753.011 704.489,696.517 701,639.5C697.551,583.135 730.34,544.225 850,536Z" style="fill:rgb(133,153,251);stroke:black;stroke-width:2.13px;"/>
                </g>
                <g transform="matrix(1,0,0,1,19,-24)">
                    <ellipse cx="681" cy="792" rx="61" ry="49" style="fill:rgb(76,93,178);"/>
                </g>
            </g>
            <g id="Cell19" serif:id="Cell" transform="matrix(0.586704,0,0,0.586704,320.642,1069.26)">
                <g transform="matrix(1,0,0,1,-182,150)">
                    <path d="M850,536C932.042,530.361 986.935,583.665 999,639.5C1001.74,652.16 1000.46,672.461 993.882,683.939C985.929,697.818 970.685,702.493 951.408,713.139C925.615,727.383 890.809,737.995 850,743C768.376,753.011 704.489,696.517 701,639.5C697.551,583.135 730.34,544.225 850,536Z" style="fill:rgb(133,153,251);stroke:black;stroke-width:2.13px;"/>
                </g>
                <g transform="matrix(1,0,0,1,19,-24)">
                    <ellipse cx="681" cy="792" rx="61" ry="49" style="fill:rgb(76,93,178);"/>
                </g>
            </g>
            <g id="Cell20" serif:id="Cell" transform="matrix(0.586704,0,0,0.586704,570.578,1014.11)">
                <g transform="matrix(1,0,0,1,-182,150)">
                    <path d="M850,536C932.042,530.361 986.935,583.665 999,639.5C1001.74,652.16 1000.46,672.461 993.882,683.939C985.929,697.818 970.685,702.493 951.408,713.139C925.615,727.383 890.809,737.995 850,743C768.376,753.011 704.489,696.517 701,639.5C697.551,583.135 730.34,544.225 850,536Z" style="fill:rgb(133,153,251);stroke:black;stroke-width:2.13px;"/>
                </g>
                <g transform="matrix(1,0,0,1,19,-24)">
                    <ellipse cx="681" cy="792" rx="61" ry="49" style="fill:rgb(76,93,178);"/>
                </g>
            </g>
            <g id="Cell21" serif:id="Cell" transform="matrix(0.46488,0,0,0.46488,466.565,1032.69)">
                <g transform="matrix(1,0,0,1,-182,150)">
                    <path d="M850,536C932.042,530.361 986.935,583.665 999,639.5C1001.74,652.16 1000.46,672.461 993.882,683.939C985.929,697.818 970.685,702.493 951.408,713.139C925.615,727.383 890.809,737.995 850,743C768.376,753.011 704.489,696.517 701,639.5C697.551,583.135 730.34,544.225 850,536Z" style="fill:rgb(133,153,251);stroke:black;stroke-width:2.69px;"/>
                </g>
                <g transform="matrix(1,0,0,1,19,-24)">
                    <ellipse cx="681" cy="792" rx="61" ry="49" style="fill:rgb(76,93,178);"/>
                </g>
            </g>
            <g transform="matrix(1,0,0,1,36,1169)">
                <g transform="matrix(0.648352,0,0,0.64433,263.593,210.366)">
                    <rect x="451" y="479" width="273" height="194" style="fill:white;stroke:black;stroke-width:6.45px;"/>
                </g>
                <g transform="matrix(1.15278,0,0,1.15278,39.079,85.8056)">
                    <g transform="matrix(83.3333,0,0,83.3333,554.181,453.652)">
                    </g>
                    <text x="494px" y="453.652px" style="font-family:'Arial-BoldMT', 'Arial', sans-serif;font-weight:700;font-size:83.333px;">C</text>
                </g>
            </g>
        </g>
        <rect x="1822" y="1114" width="726" height="612" style="fill:white;fill-opacity:0.75;"/>
        <g transform="matrix(1.09229,0,0,1,-1007.15,-612)">
            <rect x="1822" y="1114" width="726" height="612" style="fill:white;fill-opacity:0.75;"/>
        </g>
        <g transform="matrix(0.568374,-0.414091,0.380557,0.522346,290.702,1366.69)">
            <path d="M1829.16,1129.42L1829.16,1198L1732.2,1092.5L1829.16,987L1829.16,1055.58L2145.04,1055.58L2145.04,987L2242,1092.5L2145.04,1198L2145.04,1129.42L1829.16,1129.42Z" style="fill:white;stroke:black;stroke-width:6.17px;"/>
        </g>
        <g transform="matrix(0.908661,0,0,1,611.873,-609)">
            <g transform="matrix(2.32601,0,0,1.09794,-839.241,372.088)">
                <rect x="451" y="479" width="273" height="194" style="fill:white;stroke:black;stroke-width:2.47px;"/>
            </g>
            <g transform="matrix(1.00239,0,0,0.910834,-230.181,584.733)">
                <text x="511.612px" y="443.118px" style="font-family:'Arial-BoldMT', 'Arial', sans-serif;font-weight:700;font-size:68.618px;">Subset dataset</text>
                <g transform="matrix(68.6184,0,0,68.6184,995.794,513.982)">
                </g>
                <text x="515.532px" y="513.982px" style="font-family:'Arial-BoldMT', 'Arial', sans-serif;font-weight:700;font-size:68.618px;">for two groups</text>
            </g>
        </g>
        <g transform="matrix(1.15433,0,0,0.739645,1670.83,1061.8)">
            <g transform="matrix(2.32601,0,0,1.74227,-839.241,63.4536)">
                <rect x="451" y="479" width="273" height="194" style="fill:white;stroke:black;stroke-width:1.98px;"/>
            </g>
            <g transform="matrix(0.789058,0,0,1.23145,-124.795,460.014)">
                <text x="513.85px" y="439.844px" style="font-family:'Arial-BoldMT', 'Arial', sans-serif;font-weight:700;font-size:64.044px;">T<tspan x="548.217px 598.032px " y="439.844px 439.844px ">wo</tspan> tests performed</text>
                <text x="692.941px" y="505.983px" style="font-family:'Arial-BoldMT', 'Arial', sans-serif;font-weight:700;font-size:64.044px;">per gene</text>
                <g transform="matrix(64.0438,0,0,64.0438,1139.57,572.122)">
                </g>
                <text x="513.24px" y="572.122px" style="font-family:'Arial-BoldMT', 'Arial', sans-serif;font-weight:700;font-size:64.044px;">(B vs. C and C vs. B)</text>
            </g>
        </g>
    </g>
</svg>
